{"title":"Fantastic Mr. Fox (2009)[BDrip 720p - H264 - Ita Eng Ac3 5.1 Ita","uid":9796462,"size":4589086051,"categoryP":"video","categoryS":"hd___movies","magnet":"?xt=urn:btih:46ffeedff7a2b20c9e05910e8d8a3ead06abcd5f&amp;dn=Fantastic+Mr.+Fox+%282009%29%5BBDrip+720p+-+H264+-+Ita+Eng+Ac3+5.1+Ita&amp;tr=udp%3A%2F%2Ftracker.openbittorrent.com%3A80&amp;tr=udp%3A%2F%2Fopen.demonii.com%3A1337&amp;tr=udp%3A%2F%2Ftracker.coppersurfer.tk%3A6969&amp;tr=udp%3A%2F%2Fexodus.desync.com%3A6969","seeders":3,"leechers":1,"uploader":"kaimanov","files":1,"time":1395326133,"description":"Fantastic Mr. Fox\n(2009)\n\n[IMG]http://i.imgur.com/yg1G2K6.jpg[/IMG]\n\n------------------------------------------------------------------\n\n\tInfo File\n\nVideo: BDRip x264, 1280x692, 23.976 fps \nAudio: Ita AC3, Ita DTS, Eng AC3\nSoftSub: Ita, Ita, Eng\n\n\n------------------------------------------------------------------\n\n* * * MediaInspector for Mac - Version 2.0.1, build 900\n* * * Â©2012 by Diego Massanti\n* * * MediaInfo Lib by Jerome Martinez\n* * * Raw File Report for Fantastic.Mr.Fox.2009.iTA.ENG.720p.Bluray.x264.DTS-VaRieD.mkv\n\nGeneral\nUnique ID                        : 186162934302220182973133069380025443124 (0x8C0DAD4DF4BB89E2A9E94C0E6FB9E334)\nComplete name                    : Fantastic.Mr.Fox.2009.iTA.ENG.720p.Bluray.x264.DTS-VaRieD.mkv\nFormat                           : Matroska\nFile size                        : 4.27 GiB\nDuration                         : 1h 26mn\nOverall bit rate                 : 7 049 Kbps\nEncoded date                     : UTC 2013-08-08 21:55:40\nWriting application              : mkvmerge v6.3.0 ('You can't stop me!') built on Jun 28 2013 20:09:41\nWriting library                  : libebml v1.3.0 + libmatroska v1.4.0\n\nVideo\nID                               : 1\nFormat                           : AVC\nFormat/Info                      : Advanced Video Codec\nFormat profile                   : &lt;a class=&quot;__cf_email__&quot; href=&quot;/cdn-cgi/l/email-protection&quot; data-cfemail=&quot;e6ae8f818ea6aad2c8d7&quot;&gt;[email&amp;#160;protected]&lt;/a&gt;&lt;script cf-hash='f9e31' type=&quot;text/javascript&quot;&gt;\n/* &lt;![CDATA[ */!function(){try{var t=&quot;currentScript&quot;in document?document.currentScript:function(){for(var t=document.getElementsByTagName(&quot;script&quot;),e=t.length;e--;)if(t[e].getAttribute(&quot;cf-hash&quot;))return t[e]}();if(t&amp;&amp;t.previousSibling){var e,r,n,i,c=t.previousSibling,a=c.getAttribute(&quot;data-cfemail&quot;);if(a){for(e=&quot;&quot;,r=parseInt(a.substr(0,2),16),n=2;a.length-n;n+=2)i=parseInt(a.substr(n,2),16)^r,e+=String.fromCharCode(i);e=document.createTextNode(e),c.parentNode.replaceChild(e,c)}}}catch(u){}}();/* ]]&gt; */&lt;/script&gt;\nFormat settings, CABAC           : Yes\nFormat settings, ReFrames        : 6 frames\nCodec ID                         : V_MPEG4/ISO/AVC\nDuration                         : 1h 26mn\nBit rate                         : 5 000 Kbps\nWidth                            : 1 280 pixels\nHeight                           : 692 pixels\nDisplay aspect ratio             : 1.850\nFrame rate                       : 23.976 fps\nColor space                      : YUV\nChroma subsampling               : 4:2:0\nBit depth                        : 8 bits\nScan type                        : Progressive\nBits/(Pixel*Frame)               : 0.235\nStream size                      : 2.96 GiB (69%)\nWriting library                  : x264 core 85 r1442 781d300\nEncoding settings                : cabac=1 / ref=6 / deblock=1:-3:-3 / analyse=0x3:0x133 / me=umh / subme=10 / psy=1 / psy_rd=1.00:0.25 / mixed_ref=1 / me_range=64 / chroma_me=1 / trellis=2 / 8x8dct=1 / cqm=0 / deadzone=21,11 / fast_pskip=0 / chroma_qp_offset=-4 / threads=12 / sliced_threads=0 / nr=0 / decimate=0 / mbaff=0 / constrained_intra=0 / bframes=12 / b_pyramid=0 / b_adapt=2 / b_bias=0 / direct=3 / wpredb=1 / wpredp=2 / keyint=240 / keyint_min=24 / scenecut=40 / intra_refresh=0 / rc_lookahead=60 / rc=2pass / mbtree=1 / bitrate=5000 / ratetol=3.0 / qcomp=0.80 / qpmin=10 / qpmax=51 / qpstep=4 / cplxblur=20.0 / qblur=0.5 / vbv_maxrate=40000 / vbv_bufsize=30000 / ip_ratio=1.10 / aq=1:1.20\nLanguage                         : English\n\nAudio #1\nID                               : 2\nFormat                           : AC-3\nFormat/Info                      : Audio Coding 3\nMode extension                   : CM (complete main)\nCodec ID                         : A_AC3\nDuration                         : 1h 26mn\nBit rate mode                    : Constant\nBit rate                         : 640 Kbps\nChannel(s)                       : 6 channels\nChannel positions                : Front: L C R, Side: L R, LFE\nSampling rate                    : 48.0 KHz\nBit depth                        : 16 bits\nCompression mode                 : Lossy\nDelay relative to video          : 16ms\nStream size                      : 397 MiB (9%)\nTitle                            : Italiano AC3\nLanguage                         : Italian\n\nAudio #2\nID                               : 3\nFormat                           : DTS\nFormat/Info                      : Digital Theater Systems\nCodec ID                         : A_DTS\nDuration                         : 1h 26mn\nBit rate mode                    : Constant\nBit rate                         : 754 Kbps\nChannel(s)                       : 6 channels\nChannel positions                : Front: L C R, Side: L R, LFE\nSampling rate                    : 48.0 KHz\nBit depth                        : 24 bits\nCompression mode                 : Lossy\nDelay relative to video          : 5ms\nStream size                      : 468 MiB (11%)\nTitle                            : Italiano dts\nLanguage                         : Italian\n\nAudio #3\nID                               : 4\nFormat                           : AC-3\nFormat/Info                      : Audio Coding 3\nMode extension                   : CM (complete main)\nCodec ID                         : A_AC3\nDuration                         : 1h 26mn\nBit rate mode                    : Constant\nBit rate                         : 640 Kbps\nChannel(s)                       : 6 channels\nChannel positions                : Front: L C R, Side: L R, LFE\nSampling rate                    : 48.0 KHz\nBit depth                        : 16 bits\nCompression mode                 : Lossy\nDelay relative to video          : 16ms\nStream size                      : 397 MiB (9%)\nTitle                            : Inglese AC3\nLanguage                         : English\n\nText #1\nID                               : 5\nFormat                           : UTF-8\nCodec ID                         : S_TEXT/UTF8\nCodec ID/Info                    : UTF-8 Plain Text\nTitle                            : Italiano Forced\nLanguage                         : Italian\n\nText #2\nID                               : 6\nFormat                           : UTF-8\nCodec ID                         : S_TEXT/UTF8\nCodec ID/Info                    : UTF-8 Plain Text\nTitle                            : Italiano\nLanguage                         : Italian\n\nText #3\nID                               : 7\nFormat                           : UTF-8\nCodec ID                         : S_TEXT/UTF8\nCodec ID/Info                    : UTF-8 Plain Text\nTitle                            : Inglese\nLanguage                         : English\n\nMenu\n00:00:00.000                     : en:1. Main Title / Trapped!\n00:04:30.353                     : en:2. Living in a Hole\n00:06:35.729                     : en:3. Just Buy the Tree\n00:09:59.974                     : en:4. Unwelcome Houseguest\n00:14:35.875                     : en:5. One Last Big Job\n00:17:00.811                     : en:6. Master Plan\n00:21:22.072                     : en:7. Whack-Bat\n00:23:56.894                     : en:8. Bean's Secret Cider Cellar\n00:30:15.605                     : en:9. Tails Don't Grow Back\n00:32:31.950                     : en:10. Dig!\n00:36:20.011                     : en:11. No Ticks, No Lice\n00:38:27.055                     : en:12. The Siege Begins\n00:41:56.556                     : en:13. Triple Header\n00:45:30.770                     : en:14. Ash's Brilliant Brainstorm\n00:49:23.210                     : en:15. Apple Juice Flood\n00:51:50.899                     : en:16. Waving the White Flag\n00:54:45.365                     : en:17. Redemption\n00:58:33.301                     : en:18. Going for Broke\n01:01:19.342                     : en:19. On Fire\n01:05:44.941                     : en:20. Rescue Mission\n01:11:15.730                     : en:21. Less Than a Slice of Bread\n01:14:22.917                     : en:22. What a Beautiful Creature\n01:15:54.925                     : en:23. A Good Toast\n01:20:00.462                     : en:24. Let Her Dance / End Titles\n","torrent":{"xt":"urn:btih:46ffeedff7a2b20c9e05910e8d8a3ead06abcd5f","amp;dn":"Fantastic+Mr.+Fox+%282009%29%5BBDrip+720p+-+H264+-+Ita+Eng+Ac3+5.1+Ita","amp;tr":["udp%3A%2F%2Ftracker.openbittorrent.com%3A80","udp%3A%2F%2Fopen.demonii.com%3A1337","udp%3A%2F%2Ftracker.coppersurfer.tk%3A6969","udp%3A%2F%2Fexodus.desync.com%3A6969"],"infoHash":"46ffeedff7a2b20c9e05910e8d8a3ead06abcd5f","infoHashBuffer":{"type":"Buffer","data":[70,255,238,223,247,162,178,12,158,5,145,14,141,138,62,173,6,171,205,95]},"announce":[],"urlList":[]}}